<?xml version="1.0" encoding="UTF-8" standalone="no"?>
<!DOCTYPE svg PUBLIC "-//W3C//DTD SVG 1.1//EN"
 "http://www.w3.org/Graphics/SVG/1.1/DTD/svg11.dtd">
<!-- Generated by graphviz version 2.40.1 (20161225.0304)
 -->
<!-- Title: dependencies Pages: 1 -->
<svg width="890pt" height="211pt"
 viewBox="0.00 0.00 890.00 211.00" xmlns="http://www.w3.org/2000/svg" xmlns:xlink="http://www.w3.org/1999/xlink">
<g id="graph0" class="graph" transform="scale(1 1) rotate(0) translate(4 207)">
<title>dependencies</title>
<polygon fill="#ffffff" stroke="transparent" points="-4,4 -4,-207 886,-207 886,4 -4,4"/>
<text text-anchor="start" x="420.0091" y="-42.4" font-family="sans-serif" font-weight="bold" font-size="14.00" fill="#000000">Legend</text>
<polygon fill="#ffffb3" stroke="transparent" points="207,-10 207,-30 227,-30 227,-10 207,-10"/>
<text text-anchor="start" x="230.629" y="-15.4" font-family="sans-serif" font-size="14.00" fill="#000000"> &#160;Declarations</text>
<polygon fill="#8dd3c7" stroke="transparent" points="320,-10 320,-30 340,-30 340,-10 320,-10"/>
<text text-anchor="start" x="343.7251" y="-15.4" font-family="sans-serif" font-size="14.00" fill="#000000"> &#160;Module</text>
<polygon fill="#80b1d3" stroke="transparent" points="406,-10 406,-30 426,-30 426,-10 406,-10"/>
<text text-anchor="start" x="429.7812" y="-15.4" font-family="sans-serif" font-size="14.00" fill="#000000"> &#160;Bootstrap</text>
<polygon fill="#fdb462" stroke="transparent" points="503,-10 503,-30 523,-30 523,-10 503,-10"/>
<text text-anchor="start" x="526.6732" y="-15.4" font-family="sans-serif" font-size="14.00" fill="#000000"> &#160;Providers</text>
<polygon fill="#fb8072" stroke="transparent" points="599,-10 599,-30 619,-30 619,-10 599,-10"/>
<text text-anchor="start" x="622.7258" y="-15.4" font-family="sans-serif" font-size="14.00" fill="#000000"> &#160;Exports</text>
<g id="clust1" class="cluster">
<title>cluster_DispositionModule</title>
<polygon fill="none" stroke="#000000" stroke-dasharray="1,5" points="8,-70 8,-195 874,-195 874,-70 8,-70"/>
</g>
<g id="clust2" class="cluster">
<title>cluster_DispositionModule_declarations</title>
<polygon fill="none" stroke="#000000" points="430,-78 430,-130 866,-130 866,-78 430,-78"/>
</g>
<g id="clust6" class="cluster">
<title>cluster_DispositionModule_imports</title>
<polygon fill="none" stroke="#000000" points="16,-78 16,-130 422,-130 422,-78 16,-78"/>
</g>
<!-- DispositionComponent -->
<g id="node1" class="node">
<title>DispositionComponent</title>
<polygon fill="#ffffb3" stroke="#000000" points="857.8906,-122 712.1094,-122 712.1094,-86 857.8906,-86 857.8906,-122"/>
<text text-anchor="middle" x="785" y="-99.8" font-family="Times,serif" font-size="14.00" fill="#000000">DispositionComponent</text>
</g>
<!-- DispositionModule -->
<g id="node4" class="node">
<title>DispositionModule</title>
<polygon fill="#8dd3c7" stroke="#000000" points="497.108,-187 494.108,-191 473.108,-191 470.108,-187 372.892,-187 372.892,-151 497.108,-151 497.108,-187"/>
<text text-anchor="middle" x="435" y="-164.8" font-family="Times,serif" font-size="14.00" fill="#000000">DispositionModule</text>
</g>
<!-- DispositionComponent&#45;&gt;DispositionModule -->
<g id="edge1" class="edge">
<title>DispositionComponent&#45;&gt;DispositionModule</title>
<path fill="none" stroke="#000000" d="M785,-122.2843C785,-143.3211 785,-175 785,-175 785,-175 507.1697,-175 507.1697,-175"/>
<polygon fill="#000000" stroke="#000000" points="507.1697,-171.5001 497.1697,-175 507.1696,-178.5001 507.1697,-171.5001"/>
</g>
<!-- OrderComponent -->
<g id="node2" class="node">
<title>OrderComponent</title>
<polygon fill="#ffffb3" stroke="#000000" points="693.9748,-122 580.0252,-122 580.0252,-86 693.9748,-86 693.9748,-122"/>
<text text-anchor="middle" x="637" y="-99.8" font-family="Times,serif" font-size="14.00" fill="#000000">OrderComponent</text>
</g>
<!-- OrderComponent&#45;&gt;DispositionModule -->
<g id="edge2" class="edge">
<title>OrderComponent&#45;&gt;DispositionModule</title>
<path fill="none" stroke="#000000" d="M637,-122.0225C637,-139.3734 637,-163 637,-163 637,-163 507.2549,-163 507.2549,-163"/>
<polygon fill="#000000" stroke="#000000" points="507.255,-159.5001 497.2549,-163 507.2549,-166.5001 507.255,-159.5001"/>
</g>
<!-- StorageComponent -->
<g id="node3" class="node">
<title>StorageComponent</title>
<polygon fill="#ffffb3" stroke="#000000" points="562.0954,-122 437.9046,-122 437.9046,-86 562.0954,-86 562.0954,-122"/>
<text text-anchor="middle" x="500" y="-99.8" font-family="Times,serif" font-size="14.00" fill="#000000">StorageComponent</text>
</g>
<!-- StorageComponent&#45;&gt;DispositionModule -->
<g id="edge3" class="edge">
<title>StorageComponent&#45;&gt;DispositionModule</title>
<path fill="none" stroke="#000000" d="M467.5032,-122.1061C467.5032,-122.1061 467.5032,-140.991 467.5032,-140.991"/>
<polygon fill="#000000" stroke="#000000" points="464.0032,-140.9909 467.5032,-150.991 471.0032,-140.991 464.0032,-140.9909"/>
</g>
<!-- CoreModule -->
<g id="node5" class="node">
<title>CoreModule</title>
<polygon fill="#8dd3c7" stroke="#000000" points="414.2619,-122 411.2619,-126 390.2619,-126 387.2619,-122 327.7381,-122 327.7381,-86 414.2619,-86 414.2619,-122"/>
<text text-anchor="middle" x="371" y="-99.8" font-family="Times,serif" font-size="14.00" fill="#000000">CoreModule</text>
</g>
<!-- CoreModule&#45;&gt;DispositionModule -->
<g id="edge4" class="edge">
<title>CoreModule&#45;&gt;DispositionModule</title>
<path fill="none" stroke="#000000" d="M393.6634,-122.1061C393.6634,-122.1061 393.6634,-140.991 393.6634,-140.991"/>
<polygon fill="#000000" stroke="#000000" points="390.1635,-140.9909 393.6634,-150.991 397.1635,-140.991 390.1635,-140.9909"/>
</g>
<!-- DispositionRoutingModule -->
<g id="node6" class="node">
<title>DispositionRoutingModule</title>
<polygon fill="#8dd3c7" stroke="#000000" points="309.726,-122 306.726,-126 285.726,-126 282.726,-122 140.274,-122 140.274,-86 309.726,-86 309.726,-122"/>
<text text-anchor="middle" x="225" y="-99.8" font-family="Times,serif" font-size="14.00" fill="#000000">DispositionRoutingModule</text>
</g>
<!-- DispositionRoutingModule&#45;&gt;DispositionModule -->
<g id="edge5" class="edge">
<title>DispositionRoutingModule&#45;&gt;DispositionModule</title>
<path fill="none" stroke="#000000" d="M225,-122.0225C225,-139.3734 225,-163 225,-163 225,-163 362.8454,-163 362.8454,-163"/>
<polygon fill="#000000" stroke="#000000" points="362.8455,-166.5001 372.8454,-163 362.8454,-159.5001 362.8455,-166.5001"/>
</g>
<!-- SharedModule -->
<g id="node7" class="node">
<title>SharedModule</title>
<polygon fill="#8dd3c7" stroke="#000000" points="122.4231,-122 119.4231,-126 98.4231,-126 95.4231,-122 23.5769,-122 23.5769,-86 122.4231,-86 122.4231,-122"/>
<text text-anchor="middle" x="73" y="-99.8" font-family="Times,serif" font-size="14.00" fill="#000000">SharedModule</text>
</g>
<!-- SharedModule&#45;&gt;DispositionModule -->
<g id="edge6" class="edge">
<title>SharedModule&#45;&gt;DispositionModule</title>
<path fill="none" stroke="#000000" d="M73,-122.2843C73,-143.3211 73,-175 73,-175 73,-175 362.77,-175 362.77,-175"/>
<polygon fill="#000000" stroke="#000000" points="362.77,-178.5001 372.77,-175 362.7699,-171.5001 362.77,-178.5001"/>
</g>
</g>
</svg>
