<?xml version="1.0" encoding="UTF-8" standalone="no"?>
<!DOCTYPE svg PUBLIC "-//W3C//DTD SVG 1.1//EN"
 "http://www.w3.org/Graphics/SVG/1.1/DTD/svg11.dtd">
<!-- Generated by graphviz version 2.40.1 (20161225.0304)
 -->
<!-- Title: dependencies Pages: 1 -->
<svg width="608pt" height="211pt"
 viewBox="0.00 0.00 608.00 211.00" xmlns="http://www.w3.org/2000/svg" xmlns:xlink="http://www.w3.org/1999/xlink">
<g id="graph0" class="graph" transform="scale(1 1) rotate(0) translate(4 207)">
<title>dependencies</title>
<polygon fill="#ffffff" stroke="transparent" points="-4,4 -4,-207 604,-207 604,4 -4,4"/>
<text text-anchor="start" x="279.0091" y="-42.4" font-family="sans-serif" font-weight="bold" font-size="14.00" fill="#000000">Legend</text>
<polygon fill="#ffffb3" stroke="transparent" points="66,-10 66,-30 86,-30 86,-10 66,-10"/>
<text text-anchor="start" x="89.629" y="-15.4" font-family="sans-serif" font-size="14.00" fill="#000000"> &#160;Declarations</text>
<polygon fill="#8dd3c7" stroke="transparent" points="179,-10 179,-30 199,-30 199,-10 179,-10"/>
<text text-anchor="start" x="202.7251" y="-15.4" font-family="sans-serif" font-size="14.00" fill="#000000"> &#160;Module</text>
<polygon fill="#80b1d3" stroke="transparent" points="265,-10 265,-30 285,-30 285,-10 265,-10"/>
<text text-anchor="start" x="288.7812" y="-15.4" font-family="sans-serif" font-size="14.00" fill="#000000"> &#160;Bootstrap</text>
<polygon fill="#fdb462" stroke="transparent" points="362,-10 362,-30 382,-30 382,-10 362,-10"/>
<text text-anchor="start" x="385.6732" y="-15.4" font-family="sans-serif" font-size="14.00" fill="#000000"> &#160;Providers</text>
<polygon fill="#fb8072" stroke="transparent" points="458,-10 458,-30 478,-30 478,-10 458,-10"/>
<text text-anchor="start" x="481.7258" y="-15.4" font-family="sans-serif" font-size="14.00" fill="#000000"> &#160;Exports</text>
<g id="clust1" class="cluster">
<title>cluster_ReportingModule</title>
<polygon fill="none" stroke="#000000" stroke-dasharray="1,5" points="8,-70 8,-195 592,-195 592,-70 8,-70"/>
</g>
<g id="clust2" class="cluster">
<title>cluster_ReportingModule_declarations</title>
<polygon fill="none" stroke="#000000" points="422,-78 422,-130 584,-130 584,-78 422,-78"/>
</g>
<g id="clust4" class="cluster">
<title>cluster_ReportingModule_imports</title>
<polygon fill="none" stroke="#000000" points="16,-78 16,-130 414,-130 414,-78 16,-78"/>
</g>
<!-- KeyFiguresComponent -->
<g id="node1" class="node">
<title>KeyFiguresComponent</title>
<polygon fill="#ffffb3" stroke="#000000" points="576.147,-122 429.853,-122 429.853,-86 576.147,-86 576.147,-122"/>
<text text-anchor="middle" x="503" y="-99.8" font-family="Times,serif" font-size="14.00" fill="#000000">KeyFiguresComponent</text>
</g>
<!-- ReportingModule -->
<g id="node2" class="node">
<title>ReportingModule</title>
<polygon fill="#8dd3c7" stroke="#000000" points="349.5437,-187 346.5437,-191 325.5437,-191 322.5437,-187 234.4563,-187 234.4563,-151 349.5437,-151 349.5437,-187"/>
<text text-anchor="middle" x="292" y="-164.8" font-family="Times,serif" font-size="14.00" fill="#000000">ReportingModule</text>
</g>
<!-- KeyFiguresComponent&#45;&gt;ReportingModule -->
<g id="edge1" class="edge">
<title>KeyFiguresComponent&#45;&gt;ReportingModule</title>
<path fill="none" stroke="#000000" d="M503,-122.1061C503,-141.3391 503,-169 503,-169 503,-169 359.6567,-169 359.6567,-169"/>
<polygon fill="#000000" stroke="#000000" points="359.6567,-165.5001 349.6567,-169 359.6566,-172.5001 359.6567,-165.5001"/>
</g>
<!-- CoreModule -->
<g id="node3" class="node">
<title>CoreModule</title>
<polygon fill="#8dd3c7" stroke="#000000" points="406.2619,-122 403.2619,-126 382.2619,-126 379.2619,-122 319.7381,-122 319.7381,-86 406.2619,-86 406.2619,-122"/>
<text text-anchor="middle" x="363" y="-99.8" font-family="Times,serif" font-size="14.00" fill="#000000">CoreModule</text>
</g>
<!-- CoreModule&#45;&gt;ReportingModule -->
<g id="edge2" class="edge">
<title>CoreModule&#45;&gt;ReportingModule</title>
<path fill="none" stroke="#000000" d="M334.6953,-122.1061C334.6953,-122.1061 334.6953,-140.991 334.6953,-140.991"/>
<polygon fill="#000000" stroke="#000000" points="331.1954,-140.9909 334.6953,-150.991 338.1954,-140.991 331.1954,-140.9909"/>
</g>
<!-- ReportingRoutingModule -->
<g id="node4" class="node">
<title>ReportingRoutingModule</title>
<polygon fill="#8dd3c7" stroke="#000000" points="301.161,-122 298.161,-126 277.161,-126 274.161,-122 140.839,-122 140.839,-86 301.161,-86 301.161,-122"/>
<text text-anchor="middle" x="221" y="-99.8" font-family="Times,serif" font-size="14.00" fill="#000000">ReportingRoutingModule</text>
</g>
<!-- ReportingRoutingModule&#45;&gt;ReportingModule -->
<g id="edge3" class="edge">
<title>ReportingRoutingModule&#45;&gt;ReportingModule</title>
<path fill="none" stroke="#000000" d="M267.7795,-122.1061C267.7795,-122.1061 267.7795,-140.991 267.7795,-140.991"/>
<polygon fill="#000000" stroke="#000000" points="264.2795,-140.9909 267.7795,-150.991 271.2795,-140.991 264.2795,-140.9909"/>
</g>
<!-- SharedModule -->
<g id="node5" class="node">
<title>SharedModule</title>
<polygon fill="#8dd3c7" stroke="#000000" points="122.4231,-122 119.4231,-126 98.4231,-126 95.4231,-122 23.5769,-122 23.5769,-86 122.4231,-86 122.4231,-122"/>
<text text-anchor="middle" x="73" y="-99.8" font-family="Times,serif" font-size="14.00" fill="#000000">SharedModule</text>
</g>
<!-- SharedModule&#45;&gt;ReportingModule -->
<g id="edge4" class="edge">
<title>SharedModule&#45;&gt;ReportingModule</title>
<path fill="none" stroke="#000000" d="M73,-122.1061C73,-141.3391 73,-169 73,-169 73,-169 224.1739,-169 224.1739,-169"/>
<polygon fill="#000000" stroke="#000000" points="224.1739,-172.5001 234.1739,-169 224.1738,-165.5001 224.1739,-172.5001"/>
</g>
</g>
</svg>
