<?xml version="1.0" encoding="UTF-8" standalone="no"?>
<!DOCTYPE svg PUBLIC "-//W3C//DTD SVG 1.1//EN"
 "http://www.w3.org/Graphics/SVG/1.1/DTD/svg11.dtd">
<!-- Generated by graphviz version 2.40.1 (20161225.0304)
 -->
<!-- Title: dependencies Pages: 1 -->
<svg width="644pt" height="211pt"
 viewBox="0.00 0.00 644.00 211.00" xmlns="http://www.w3.org/2000/svg" xmlns:xlink="http://www.w3.org/1999/xlink">
<g id="graph0" class="graph" transform="scale(1 1) rotate(0) translate(4 207)">
<title>dependencies</title>
<polygon fill="#ffffff" stroke="transparent" points="-4,4 -4,-207 640,-207 640,4 -4,4"/>
<text text-anchor="start" x="297.0091" y="-42.4" font-family="sans-serif" font-weight="bold" font-size="14.00" fill="#000000">Legend</text>
<polygon fill="#ffffb3" stroke="transparent" points="84,-10 84,-30 104,-30 104,-10 84,-10"/>
<text text-anchor="start" x="107.629" y="-15.4" font-family="sans-serif" font-size="14.00" fill="#000000"> &#160;Declarations</text>
<polygon fill="#8dd3c7" stroke="transparent" points="197,-10 197,-30 217,-30 217,-10 197,-10"/>
<text text-anchor="start" x="220.7251" y="-15.4" font-family="sans-serif" font-size="14.00" fill="#000000"> &#160;Module</text>
<polygon fill="#80b1d3" stroke="transparent" points="283,-10 283,-30 303,-30 303,-10 283,-10"/>
<text text-anchor="start" x="306.7812" y="-15.4" font-family="sans-serif" font-size="14.00" fill="#000000"> &#160;Bootstrap</text>
<polygon fill="#fdb462" stroke="transparent" points="380,-10 380,-30 400,-30 400,-10 380,-10"/>
<text text-anchor="start" x="403.6732" y="-15.4" font-family="sans-serif" font-size="14.00" fill="#000000"> &#160;Providers</text>
<polygon fill="#fb8072" stroke="transparent" points="476,-10 476,-30 496,-30 496,-10 476,-10"/>
<text text-anchor="start" x="499.7258" y="-15.4" font-family="sans-serif" font-size="14.00" fill="#000000"> &#160;Exports</text>
<g id="clust1" class="cluster">
<title>cluster_AuthentificationModule</title>
<polygon fill="none" stroke="#000000" stroke-dasharray="1,5" points="8,-70 8,-195 628,-195 628,-70 8,-70"/>
</g>
<g id="clust2" class="cluster">
<title>cluster_AuthentificationModule_declarations</title>
<polygon fill="none" stroke="#000000" points="458,-78 458,-130 620,-130 620,-78 458,-78"/>
</g>
<g id="clust4" class="cluster">
<title>cluster_AuthentificationModule_imports</title>
<polygon fill="none" stroke="#000000" points="16,-78 16,-130 450,-130 450,-78 16,-78"/>
</g>
<!-- UserProfileComponent -->
<g id="node1" class="node">
<title>UserProfileComponent</title>
<polygon fill="#ffffb3" stroke="#000000" points="611.8585,-122 466.1415,-122 466.1415,-86 611.8585,-86 611.8585,-122"/>
<text text-anchor="middle" x="539" y="-99.8" font-family="Times,serif" font-size="14.00" fill="#000000">UserProfileComponent</text>
</g>
<!-- AuthentificationModule -->
<g id="node2" class="node">
<title>AuthentificationModule</title>
<polygon fill="#8dd3c7" stroke="#000000" points="339.8047,-187 336.8047,-191 315.8047,-191 312.8047,-187 188.1953,-187 188.1953,-151 339.8047,-151 339.8047,-187"/>
<text text-anchor="middle" x="264" y="-164.8" font-family="Times,serif" font-size="14.00" fill="#000000">AuthentificationModule</text>
</g>
<!-- UserProfileComponent&#45;&gt;AuthentificationModule -->
<g id="edge1" class="edge">
<title>UserProfileComponent&#45;&gt;AuthentificationModule</title>
<path fill="none" stroke="#000000" d="M539,-122.1061C539,-141.3391 539,-169 539,-169 539,-169 349.8729,-169 349.8729,-169"/>
<polygon fill="#000000" stroke="#000000" points="349.873,-165.5001 339.8729,-169 349.8729,-172.5001 349.873,-165.5001"/>
</g>
<!-- AuthentificationRoutingModule -->
<g id="node3" class="node">
<title>AuthentificationRoutingModule</title>
<polygon fill="#8dd3c7" stroke="#000000" points="442.4227,-122 439.4227,-126 418.4227,-126 415.4227,-122 245.5773,-122 245.5773,-86 442.4227,-86 442.4227,-122"/>
<text text-anchor="middle" x="344" y="-99.8" font-family="Times,serif" font-size="14.00" fill="#000000">AuthentificationRoutingModule</text>
</g>
<!-- AuthentificationRoutingModule&#45;&gt;AuthentificationModule -->
<g id="edge2" class="edge">
<title>AuthentificationRoutingModule&#45;&gt;AuthentificationModule</title>
<path fill="none" stroke="#000000" d="M292.7206,-122.1061C292.7206,-122.1061 292.7206,-140.991 292.7206,-140.991"/>
<polygon fill="#000000" stroke="#000000" points="289.2206,-140.9909 292.7206,-150.991 296.2206,-140.991 289.2206,-140.9909"/>
</g>
<!-- CoreModule -->
<g id="node4" class="node">
<title>CoreModule</title>
<polygon fill="#8dd3c7" stroke="#000000" points="227.2619,-122 224.2619,-126 203.2619,-126 200.2619,-122 140.7381,-122 140.7381,-86 227.2619,-86 227.2619,-122"/>
<text text-anchor="middle" x="184" y="-99.8" font-family="Times,serif" font-size="14.00" fill="#000000">CoreModule</text>
</g>
<!-- CoreModule&#45;&gt;AuthentificationModule -->
<g id="edge3" class="edge">
<title>CoreModule&#45;&gt;AuthentificationModule</title>
<path fill="none" stroke="#000000" d="M207.8643,-122.1061C207.8643,-122.1061 207.8643,-140.991 207.8643,-140.991"/>
<polygon fill="#000000" stroke="#000000" points="204.3644,-140.9909 207.8643,-150.991 211.3644,-140.991 204.3644,-140.9909"/>
</g>
<!-- SharedModule -->
<g id="node5" class="node">
<title>SharedModule</title>
<polygon fill="#8dd3c7" stroke="#000000" points="122.4231,-122 119.4231,-126 98.4231,-126 95.4231,-122 23.5769,-122 23.5769,-86 122.4231,-86 122.4231,-122"/>
<text text-anchor="middle" x="73" y="-99.8" font-family="Times,serif" font-size="14.00" fill="#000000">SharedModule</text>
</g>
<!-- SharedModule&#45;&gt;AuthentificationModule -->
<g id="edge4" class="edge">
<title>SharedModule&#45;&gt;AuthentificationModule</title>
<path fill="none" stroke="#000000" d="M73,-122.1061C73,-141.3391 73,-169 73,-169 73,-169 178.2374,-169 178.2374,-169"/>
<polygon fill="#000000" stroke="#000000" points="178.2374,-172.5001 188.2374,-169 178.2374,-165.5001 178.2374,-172.5001"/>
</g>
</g>
</svg>
