<?xml version="1.0" encoding="UTF-8" standalone="no"?>
<!DOCTYPE svg PUBLIC "-//W3C//DTD SVG 1.1//EN"
 "http://www.w3.org/Graphics/SVG/1.1/DTD/svg11.dtd">
<!-- Generated by graphviz version 2.40.1 (20161225.0304)
 -->
<!-- Title: dependencies Pages: 1 -->
<svg width="1607pt" height="211pt"
 viewBox="0.00 0.00 1607.00 211.00" xmlns="http://www.w3.org/2000/svg" xmlns:xlink="http://www.w3.org/1999/xlink">
<g id="graph0" class="graph" transform="scale(1 1) rotate(0) translate(4 207)">
<title>dependencies</title>
<polygon fill="#ffffff" stroke="transparent" points="-4,4 -4,-207 1603,-207 1603,4 -4,4"/>
<text text-anchor="start" x="778.5091" y="-42.4" font-family="sans-serif" font-weight="bold" font-size="14.00" fill="#000000">Legend</text>
<polygon fill="#ffffb3" stroke="transparent" points="565.5,-10 565.5,-30 585.5,-30 585.5,-10 565.5,-10"/>
<text text-anchor="start" x="589.129" y="-15.4" font-family="sans-serif" font-size="14.00" fill="#000000"> &#160;Declarations</text>
<polygon fill="#8dd3c7" stroke="transparent" points="678.5,-10 678.5,-30 698.5,-30 698.5,-10 678.5,-10"/>
<text text-anchor="start" x="702.2251" y="-15.4" font-family="sans-serif" font-size="14.00" fill="#000000"> &#160;Module</text>
<polygon fill="#80b1d3" stroke="transparent" points="764.5,-10 764.5,-30 784.5,-30 784.5,-10 764.5,-10"/>
<text text-anchor="start" x="788.2812" y="-15.4" font-family="sans-serif" font-size="14.00" fill="#000000"> &#160;Bootstrap</text>
<polygon fill="#fdb462" stroke="transparent" points="861.5,-10 861.5,-30 881.5,-30 881.5,-10 861.5,-10"/>
<text text-anchor="start" x="885.1732" y="-15.4" font-family="sans-serif" font-size="14.00" fill="#000000"> &#160;Providers</text>
<polygon fill="#fb8072" stroke="transparent" points="957.5,-10 957.5,-30 977.5,-30 977.5,-10 957.5,-10"/>
<text text-anchor="start" x="981.2258" y="-15.4" font-family="sans-serif" font-size="14.00" fill="#000000"> &#160;Exports</text>
<g id="clust1" class="cluster">
<title>cluster_VisualisationModule</title>
<polygon fill="none" stroke="#000000" stroke-dasharray="1,5" points="8,-70 8,-195 1591,-195 1591,-70 8,-70"/>
</g>
<g id="clust2" class="cluster">
<title>cluster_VisualisationModule_declarations</title>
<polygon fill="none" stroke="#000000" points="439,-78 439,-130 1583,-130 1583,-78 439,-78"/>
</g>
<g id="clust8" class="cluster">
<title>cluster_VisualisationModule_imports</title>
<polygon fill="none" stroke="#000000" points="16,-78 16,-130 431,-130 431,-78 16,-78"/>
</g>
<!-- OrderPlanningComponent -->
<g id="node1" class="node">
<title>OrderPlanningComponent</title>
<polygon fill="#ffffb3" stroke="#000000" points="1574.7534,-122 1411.2466,-122 1411.2466,-86 1574.7534,-86 1574.7534,-122"/>
<text text-anchor="middle" x="1493" y="-99.8" font-family="Times,serif" font-size="14.00" fill="#000000">OrderPlanningComponent</text>
</g>
<!-- VisualisationModule -->
<g id="node6" class="node">
<title>VisualisationModule</title>
<polygon fill="#8dd3c7" stroke="#000000" points="735.9285,-187 732.9285,-191 711.9285,-191 708.9285,-187 602.0715,-187 602.0715,-151 735.9285,-151 735.9285,-187"/>
<text text-anchor="middle" x="669" y="-164.8" font-family="Times,serif" font-size="14.00" fill="#000000">VisualisationModule</text>
</g>
<!-- OrderPlanningComponent&#45;&gt;VisualisationModule -->
<g id="edge1" class="edge">
<title>OrderPlanningComponent&#45;&gt;VisualisationModule</title>
<path fill="none" stroke="#000000" d="M1493,-122.2921C1493,-144.2057 1493,-178 1493,-178 1493,-178 745.7334,-178 745.7334,-178"/>
<polygon fill="#000000" stroke="#000000" points="745.7334,-174.5001 735.7334,-178 745.7334,-181.5001 745.7334,-174.5001"/>
</g>
<!-- ProductionMonitoringComponent -->
<g id="node2" class="node">
<title>ProductionMonitoringComponent</title>
<polygon fill="#ffffb3" stroke="#000000" points="1393.0489,-122 1186.9511,-122 1186.9511,-86 1393.0489,-86 1393.0489,-122"/>
<text text-anchor="middle" x="1290" y="-99.8" font-family="Times,serif" font-size="14.00" fill="#000000">ProductionMonitoringComponent</text>
</g>
<!-- ProductionMonitoringComponent&#45;&gt;VisualisationModule -->
<g id="edge2" class="edge">
<title>ProductionMonitoringComponent&#45;&gt;VisualisationModule</title>
<path fill="none" stroke="#000000" d="M1290,-122.1061C1290,-141.3391 1290,-169 1290,-169 1290,-169 745.7526,-169 745.7526,-169"/>
<polygon fill="#000000" stroke="#000000" points="745.7527,-165.5001 735.7526,-169 745.7526,-172.5001 745.7527,-165.5001"/>
</g>
<!-- ProductionOrderDetailDialogComponent -->
<g id="node3" class="node">
<title>ProductionOrderDetailDialogComponent</title>
<polygon fill="#ffffb3" stroke="#000000" points="1168.724,-122 921.276,-122 921.276,-86 1168.724,-86 1168.724,-122"/>
<text text-anchor="middle" x="1045" y="-99.8" font-family="Times,serif" font-size="14.00" fill="#000000">ProductionOrderDetailDialogComponent</text>
</g>
<!-- ProductionOrderDetailDialogComponent&#45;&gt;VisualisationModule -->
<g id="edge3" class="edge">
<title>ProductionOrderDetailDialogComponent&#45;&gt;VisualisationModule</title>
<path fill="none" stroke="#000000" d="M1045,-122.027C1045,-138.3976 1045,-160 1045,-160 1045,-160 745.788,-160 745.788,-160"/>
<polygon fill="#000000" stroke="#000000" points="745.788,-156.5001 735.788,-160 745.788,-163.5001 745.788,-156.5001"/>
</g>
<!-- ProductionOrderOverviewComponent -->
<g id="node4" class="node">
<title>ProductionOrderOverviewComponent</title>
<polygon fill="#ffffb3" stroke="#000000" points="903.1077,-122 672.8923,-122 672.8923,-86 903.1077,-86 903.1077,-122"/>
<text text-anchor="middle" x="788" y="-99.8" font-family="Times,serif" font-size="14.00" fill="#000000">ProductionOrderOverviewComponent</text>
</g>
<!-- ProductionOrderOverviewComponent&#45;&gt;VisualisationModule -->
<g id="edge4" class="edge">
<title>ProductionOrderOverviewComponent&#45;&gt;VisualisationModule</title>
<path fill="none" stroke="#000000" d="M704.2051,-122.1061C704.2051,-122.1061 704.2051,-140.991 704.2051,-140.991"/>
<polygon fill="#000000" stroke="#000000" points="700.7052,-140.9909 704.2051,-150.991 707.7052,-140.991 700.7052,-140.9909"/>
</g>
<!-- ProductionOrderTableComponent -->
<g id="node5" class="node">
<title>ProductionOrderTableComponent</title>
<polygon fill="#ffffb3" stroke="#000000" points="654.7864,-122 447.2136,-122 447.2136,-86 654.7864,-86 654.7864,-122"/>
<text text-anchor="middle" x="551" y="-99.8" font-family="Times,serif" font-size="14.00" fill="#000000">ProductionOrderTableComponent</text>
</g>
<!-- ProductionOrderTableComponent&#45;&gt;VisualisationModule -->
<g id="edge5" class="edge">
<title>ProductionOrderTableComponent&#45;&gt;VisualisationModule</title>
<path fill="none" stroke="#000000" d="M628.4646,-122.1061C628.4646,-122.1061 628.4646,-140.991 628.4646,-140.991"/>
<polygon fill="#000000" stroke="#000000" points="624.9647,-140.9909 628.4646,-150.991 631.9647,-140.991 624.9647,-140.9909"/>
</g>
<!-- CoreModule -->
<g id="node7" class="node">
<title>CoreModule</title>
<polygon fill="#8dd3c7" stroke="#000000" points="423.2619,-122 420.2619,-126 399.2619,-126 396.2619,-122 336.7381,-122 336.7381,-86 423.2619,-86 423.2619,-122"/>
<text text-anchor="middle" x="380" y="-99.8" font-family="Times,serif" font-size="14.00" fill="#000000">CoreModule</text>
</g>
<!-- CoreModule&#45;&gt;VisualisationModule -->
<g id="edge6" class="edge">
<title>CoreModule&#45;&gt;VisualisationModule</title>
<path fill="none" stroke="#000000" d="M380,-122.027C380,-138.3976 380,-160 380,-160 380,-160 591.9712,-160 591.9712,-160"/>
<polygon fill="#000000" stroke="#000000" points="591.9712,-163.5001 601.9712,-160 591.9712,-156.5001 591.9712,-163.5001"/>
</g>
<!-- SharedModule -->
<g id="node8" class="node">
<title>SharedModule</title>
<polygon fill="#8dd3c7" stroke="#000000" points="318.4231,-122 315.4231,-126 294.4231,-126 291.4231,-122 219.5769,-122 219.5769,-86 318.4231,-86 318.4231,-122"/>
<text text-anchor="middle" x="269" y="-99.8" font-family="Times,serif" font-size="14.00" fill="#000000">SharedModule</text>
</g>
<!-- SharedModule&#45;&gt;VisualisationModule -->
<g id="edge7" class="edge">
<title>SharedModule&#45;&gt;VisualisationModule</title>
<path fill="none" stroke="#000000" d="M269,-122.1061C269,-141.3391 269,-169 269,-169 269,-169 592.049,-169 592.049,-169"/>
<polygon fill="#000000" stroke="#000000" points="592.049,-172.5001 602.049,-169 592.049,-165.5001 592.049,-172.5001"/>
</g>
<!-- VisualisationRoutingModule -->
<g id="node9" class="node">
<title>VisualisationRoutingModule</title>
<polygon fill="#8dd3c7" stroke="#000000" points="202.0462,-122 199.0462,-126 178.0462,-126 175.0462,-122 23.9538,-122 23.9538,-86 202.0462,-86 202.0462,-122"/>
<text text-anchor="middle" x="113" y="-99.8" font-family="Times,serif" font-size="14.00" fill="#000000">VisualisationRoutingModule</text>
</g>
<!-- VisualisationRoutingModule&#45;&gt;VisualisationModule -->
<g id="edge8" class="edge">
<title>VisualisationRoutingModule&#45;&gt;VisualisationModule</title>
<path fill="none" stroke="#000000" d="M113,-122.2921C113,-144.2057 113,-178 113,-178 113,-178 592.2098,-178 592.2098,-178"/>
<polygon fill="#000000" stroke="#000000" points="592.2098,-181.5001 602.2098,-178 592.2097,-174.5001 592.2098,-181.5001"/>
</g>
</g>
</svg>
