<?xml version="1.0" encoding="UTF-8" standalone="no"?>
<!DOCTYPE svg PUBLIC "-//W3C//DTD SVG 1.1//EN"
 "http://www.w3.org/Graphics/SVG/1.1/DTD/svg11.dtd">
<!-- Generated by graphviz version 2.40.1 (20161225.0304)
 -->
<!-- Title: dependencies Pages: 1 -->
<svg width="3652pt" height="360pt"
 viewBox="0.00 0.00 3652.00 360.00" xmlns="http://www.w3.org/2000/svg" xmlns:xlink="http://www.w3.org/1999/xlink">
<g id="graph0" class="graph" transform="scale(1 1) rotate(0) translate(4 356)">
<title>dependencies</title>
<polygon fill="#ffffff" stroke="transparent" points="-4,4 -4,-356 3648,-356 3648,4 -4,4"/>
<text text-anchor="start" x="1801.0091" y="-42.4" font-family="sans-serif" font-weight="bold" font-size="14.00" fill="#000000">Legend</text>
<polygon fill="#ffffb3" stroke="transparent" points="1588,-10 1588,-30 1608,-30 1608,-10 1588,-10"/>
<text text-anchor="start" x="1611.629" y="-15.4" font-family="sans-serif" font-size="14.00" fill="#000000"> &#160;Declarations</text>
<polygon fill="#8dd3c7" stroke="transparent" points="1701,-10 1701,-30 1721,-30 1721,-10 1701,-10"/>
<text text-anchor="start" x="1724.7251" y="-15.4" font-family="sans-serif" font-size="14.00" fill="#000000"> &#160;Module</text>
<polygon fill="#80b1d3" stroke="transparent" points="1787,-10 1787,-30 1807,-30 1807,-10 1787,-10"/>
<text text-anchor="start" x="1810.7812" y="-15.4" font-family="sans-serif" font-size="14.00" fill="#000000"> &#160;Bootstrap</text>
<polygon fill="#fdb462" stroke="transparent" points="1884,-10 1884,-30 1904,-30 1904,-10 1884,-10"/>
<text text-anchor="start" x="1907.6732" y="-15.4" font-family="sans-serif" font-size="14.00" fill="#000000"> &#160;Providers</text>
<polygon fill="#fb8072" stroke="transparent" points="1980,-10 1980,-30 2000,-30 2000,-10 1980,-10"/>
<text text-anchor="start" x="2003.7258" y="-15.4" font-family="sans-serif" font-size="14.00" fill="#000000"> &#160;Exports</text>
<g id="clust1" class="cluster">
<title>cluster_AppModule</title>
<polygon fill="none" stroke="#000000" stroke-dasharray="1,5" points="414,-146 414,-344 1242,-344 1242,-146 414,-146"/>
</g>
<g id="clust2" class="cluster">
<title>cluster_AppModule_declarations</title>
<polygon fill="none" stroke="#000000" points="422,-154 422,-206 860,-206 860,-154 422,-154"/>
</g>
<g id="clust6" class="cluster">
<title>cluster_AppModule_imports</title>
<polygon fill="none" stroke="#000000" points="868,-154 868,-206 1234,-206 1234,-154 868,-154"/>
</g>
<g id="clust8" class="cluster">
<title>cluster_AppModule_bootstrap</title>
<polygon fill="none" stroke="#000000" points="792,-284 792,-336 916,-336 916,-284 792,-284"/>
</g>
<g id="clust16" class="cluster">
<title>cluster_AuthentificationModule</title>
<polygon fill="none" stroke="#000000" stroke-dasharray="1,5" points="8,-146 8,-271 406,-271 406,-146 8,-146"/>
</g>
<g id="clust17" class="cluster">
<title>cluster_AuthentificationModule_declarations</title>
<polygon fill="none" stroke="#000000" points="236,-154 236,-206 398,-206 398,-154 236,-154"/>
</g>
<g id="clust19" class="cluster">
<title>cluster_AuthentificationModule_imports</title>
<polygon fill="none" stroke="#000000" points="16,-154 16,-206 228,-206 228,-154 16,-154"/>
</g>
<g id="clust29" class="cluster">
<title>cluster_CoreModule</title>
<polygon fill="none" stroke="#000000" stroke-dasharray="1,5" points="864,-70 864,-138 1527,-138 1527,-70 864,-70"/>
</g>
<g id="clust34" class="cluster">
<title>cluster_CoreModule_providers</title>
<polygon fill="none" stroke="#000000" points="872,-78 872,-130 1519,-130 1519,-78 872,-78"/>
</g>
<g id="clust35" class="cluster">
<title>cluster_DispositionModule</title>
<polygon fill="none" stroke="#000000" stroke-dasharray="1,5" points="1250,-146 1250,-271 1896,-271 1896,-146 1250,-146"/>
</g>
<g id="clust36" class="cluster">
<title>cluster_DispositionModule_declarations</title>
<polygon fill="none" stroke="#000000" points="1452,-154 1452,-206 1888,-206 1888,-154 1452,-154"/>
</g>
<g id="clust40" class="cluster">
<title>cluster_DispositionModule_imports</title>
<polygon fill="none" stroke="#000000" points="1258,-154 1258,-206 1444,-206 1444,-154 1258,-154"/>
</g>
<g id="clust50" class="cluster">
<title>cluster_ReportingModule</title>
<polygon fill="none" stroke="#000000" stroke-dasharray="1,5" points="1904,-146 1904,-271 2266,-271 2266,-146 1904,-146"/>
</g>
<g id="clust51" class="cluster">
<title>cluster_ReportingModule_declarations</title>
<polygon fill="none" stroke="#000000" points="2096,-154 2096,-206 2258,-206 2258,-154 2096,-154"/>
</g>
<g id="clust53" class="cluster">
<title>cluster_ReportingModule_imports</title>
<polygon fill="none" stroke="#000000" points="1912,-154 1912,-206 2088,-206 2088,-154 1912,-154"/>
</g>
<g id="clust69" class="cluster">
<title>cluster_VisualisationModule</title>
<polygon fill="none" stroke="#000000" stroke-dasharray="1,5" points="2274,-146 2274,-271 3636,-271 3636,-146 2274,-146"/>
</g>
<g id="clust70" class="cluster">
<title>cluster_VisualisationModule_declarations</title>
<polygon fill="none" stroke="#000000" points="2484,-154 2484,-206 3628,-206 3628,-154 2484,-154"/>
</g>
<g id="clust76" class="cluster">
<title>cluster_VisualisationModule_imports</title>
<polygon fill="none" stroke="#000000" points="2282,-154 2282,-206 2476,-206 2476,-154 2282,-154"/>
</g>
<!-- AppComponent -->
<g id="node1" class="node">
<title>AppComponent</title>
<polygon fill="#ffffb3" stroke="#000000" points="668.9399,-198 563.0601,-198 563.0601,-162 668.9399,-162 668.9399,-198"/>
<text text-anchor="middle" x="616" y="-175.8" font-family="Times,serif" font-size="14.00" fill="#000000">AppComponent</text>
</g>
<!-- AppModule -->
<g id="node4" class="node">
<title>AppModule</title>
<polygon fill="#8dd3c7" stroke="#000000" points="895.6571,-263 892.6571,-267 871.6571,-267 868.6571,-263 812.3429,-263 812.3429,-227 895.6571,-227 895.6571,-263"/>
<text text-anchor="middle" x="854" y="-240.8" font-family="Times,serif" font-size="14.00" fill="#000000">AppModule</text>
</g>
<!-- AppComponent&#45;&gt;AppModule -->
<g id="edge1" class="edge">
<title>AppComponent&#45;&gt;AppModule</title>
<path fill="none" stroke="#000000" d="M616,-198.0225C616,-215.3734 616,-239 616,-239 616,-239 802.2712,-239 802.2712,-239"/>
<polygon fill="#000000" stroke="#000000" points="802.2713,-242.5001 812.2712,-239 802.2712,-235.5001 802.2713,-242.5001"/>
</g>
<!-- HomeComponent -->
<g id="node2" class="node">
<title>HomeComponent</title>
<polygon fill="#ffffb3" stroke="#000000" points="545.5451,-198 430.4549,-198 430.4549,-162 545.5451,-162 545.5451,-198"/>
<text text-anchor="middle" x="488" y="-175.8" font-family="Times,serif" font-size="14.00" fill="#000000">HomeComponent</text>
</g>
<!-- HomeComponent&#45;&gt;AppModule -->
<g id="edge2" class="edge">
<title>HomeComponent&#45;&gt;AppModule</title>
<path fill="none" stroke="#000000" d="M488,-198.2843C488,-219.3211 488,-251 488,-251 488,-251 802.0151,-251 802.0151,-251"/>
<polygon fill="#000000" stroke="#000000" points="802.0152,-254.5001 812.0151,-251 802.0151,-247.5001 802.0152,-254.5001"/>
</g>
<!-- PageNotFoundComponent -->
<g id="node3" class="node">
<title>PageNotFoundComponent</title>
<polygon fill="#ffffb3" stroke="#000000" points="851.8243,-198 686.1757,-198 686.1757,-162 851.8243,-162 851.8243,-198"/>
<text text-anchor="middle" x="769" y="-175.8" font-family="Times,serif" font-size="14.00" fill="#000000">PageNotFoundComponent</text>
</g>
<!-- PageNotFoundComponent&#45;&gt;AppModule -->
<g id="edge3" class="edge">
<title>PageNotFoundComponent&#45;&gt;AppModule</title>
<path fill="none" stroke="#000000" d="M831.9169,-198.1061C831.9169,-198.1061 831.9169,-216.991 831.9169,-216.991"/>
<polygon fill="#000000" stroke="#000000" points="828.417,-216.9909 831.9169,-226.991 835.417,-216.991 828.417,-216.9909"/>
</g>
<!-- AppComponent  -->
<g id="node8" class="node">
<title>AppComponent </title>
<polygon fill="#80b1d3" stroke="#000000" points="908.439,-328 799.561,-328 799.561,-292 908.439,-292 908.439,-328"/>
<text text-anchor="middle" x="854" y="-305.8" font-family="Times,serif" font-size="14.00" fill="#000000">AppComponent </text>
</g>
<!-- AppModule&#45;&gt;AppComponent  -->
<g id="edge7" class="edge">
<title>AppModule&#45;&gt;AppComponent </title>
<path fill="none" stroke="#000000" stroke-dasharray="1,5" d="M854,-263.1061C854,-263.1061 854,-281.991 854,-281.991"/>
<polygon fill="#000000" stroke="#000000" points="850.5001,-281.9909 854,-291.991 857.5001,-281.991 850.5001,-281.9909"/>
</g>
<!-- AppRoutingModule -->
<g id="node5" class="node">
<title>AppRoutingModule</title>
<polygon fill="#8dd3c7" stroke="#000000" points="1004.2744,-198 1001.2744,-202 980.2744,-202 977.2744,-198 875.7256,-198 875.7256,-162 1004.2744,-162 1004.2744,-198"/>
<text text-anchor="middle" x="940" y="-175.8" font-family="Times,serif" font-size="14.00" fill="#000000">AppRoutingModule</text>
</g>
<!-- AppRoutingModule&#45;&gt;AppModule -->
<g id="edge4" class="edge">
<title>AppRoutingModule&#45;&gt;AppModule</title>
<path fill="none" stroke="#000000" d="M885.7206,-198.1061C885.7206,-198.1061 885.7206,-216.991 885.7206,-216.991"/>
<polygon fill="#000000" stroke="#000000" points="882.2206,-216.9909 885.7206,-226.991 889.2206,-216.991 882.2206,-216.9909"/>
</g>
<!-- CoreModule -->
<g id="node6" class="node">
<title>CoreModule</title>
<polygon fill="#8dd3c7" stroke="#000000" points="1226.2619,-198 1223.2619,-202 1202.2619,-202 1199.2619,-198 1139.7381,-198 1139.7381,-162 1226.2619,-162 1226.2619,-198"/>
<text text-anchor="middle" x="1183" y="-175.8" font-family="Times,serif" font-size="14.00" fill="#000000">CoreModule</text>
</g>
<!-- CoreModule&#45;&gt;AppModule -->
<g id="edge5" class="edge">
<title>CoreModule&#45;&gt;AppModule</title>
<path fill="none" stroke="#000000" d="M1197.4603,-198.0109C1197.4603,-220.4852 1197.4603,-256 1197.4603,-256 1197.4603,-256 905.7716,-256 905.7716,-256"/>
<polygon fill="#000000" stroke="#000000" points="905.7716,-252.5001 895.7716,-256 905.7716,-259.5001 905.7716,-252.5001"/>
</g>
<!-- AuthentificationModule -->
<g id="node10" class="node">
<title>AuthentificationModule</title>
<polygon fill="#8dd3c7" stroke="#000000" points="394.8047,-263 391.8047,-267 370.8047,-267 367.8047,-263 243.1953,-263 243.1953,-227 394.8047,-227 394.8047,-263"/>
<text text-anchor="middle" x="319" y="-240.8" font-family="Times,serif" font-size="14.00" fill="#000000">AuthentificationModule</text>
</g>
<!-- CoreModule&#45;&gt;AuthentificationModule -->
<g id="edge10" class="edge">
<title>CoreModule&#45;&gt;AuthentificationModule</title>
<path fill="none" stroke="#000000" d="M1154.0795,-198.4854C1154.0795,-210.1399 1154.0795,-223 1154.0795,-223 1154.0795,-223 353.4646,-223 353.4646,-223 353.4646,-223 353.4646,-223.3832 353.4646,-223.3832"/>
<polygon fill="#000000" stroke="#000000" points="349.9649,-216.832 353.4646,-226.8321 356.9649,-216.8322 349.9649,-216.832"/>
</g>
<!-- DispositionModule -->
<g id="node19" class="node">
<title>DispositionModule</title>
<polygon fill="#8dd3c7" stroke="#000000" points="1496.108,-263 1493.108,-267 1472.108,-267 1469.108,-263 1371.892,-263 1371.892,-227 1496.108,-227 1496.108,-263"/>
<text text-anchor="middle" x="1434" y="-240.8" font-family="Times,serif" font-size="14.00" fill="#000000">DispositionModule</text>
</g>
<!-- CoreModule&#45;&gt;DispositionModule -->
<g id="edge19" class="edge">
<title>CoreModule&#45;&gt;DispositionModule</title>
<path fill="none" stroke="#000000" d="M1211.9205,-198.0091C1211.9205,-214.0494 1211.9205,-235 1211.9205,-235 1211.9205,-235 1361.8432,-235 1361.8432,-235"/>
<polygon fill="#000000" stroke="#000000" points="1361.8432,-238.5001 1371.8432,-235 1361.8431,-231.5001 1361.8432,-238.5001"/>
</g>
<!-- ReportingModule -->
<g id="node22" class="node">
<title>ReportingModule</title>
<polygon fill="#8dd3c7" stroke="#000000" points="2042.5437,-263 2039.5437,-267 2018.5437,-267 2015.5437,-263 1927.4563,-263 1927.4563,-227 2042.5437,-227 2042.5437,-263"/>
<text text-anchor="middle" x="1985" y="-240.8" font-family="Times,serif" font-size="14.00" fill="#000000">ReportingModule</text>
</g>
<!-- CoreModule&#45;&gt;ReportingModule -->
<g id="edge23" class="edge">
<title>CoreModule&#45;&gt;ReportingModule</title>
<path fill="none" stroke="#000000" d="M1168.5397,-198.0328C1168.5397,-204.8526 1168.5397,-211 1168.5397,-211 1168.5397,-211 1985,-211 1985,-211 1985,-211 1985,-216.8056 1985,-216.8056"/>
<polygon fill="#000000" stroke="#000000" points="1981.5001,-216.8055 1985,-226.8056 1988.5001,-216.8056 1981.5001,-216.8055"/>
</g>
<!-- VisualisationModule -->
<g id="node29" class="node">
<title>VisualisationModule</title>
<polygon fill="#8dd3c7" stroke="#000000" points="2780.9285,-263 2777.9285,-267 2756.9285,-267 2753.9285,-263 2647.0715,-263 2647.0715,-227 2780.9285,-227 2780.9285,-263"/>
<text text-anchor="middle" x="2714" y="-240.8" font-family="Times,serif" font-size="14.00" fill="#000000">VisualisationModule</text>
</g>
<!-- CoreModule&#45;&gt;VisualisationModule -->
<g id="edge31" class="edge">
<title>CoreModule&#45;&gt;VisualisationModule</title>
<path fill="none" stroke="#000000" d="M1183,-198.1223C1183,-200.9729 1183,-203 1183,-203 1183,-203 2673.4646,-203 2673.4646,-203 2673.4646,-203 2673.4646,-216.9445 2673.4646,-216.9445"/>
<polygon fill="#000000" stroke="#000000" points="2669.9647,-216.9444 2673.4646,-226.9445 2676.9647,-216.9445 2669.9647,-216.9444"/>
</g>
<!-- SharedModule -->
<g id="node7" class="node">
<title>SharedModule</title>
<polygon fill="#8dd3c7" stroke="#000000" points="1121.4231,-198 1118.4231,-202 1097.4231,-202 1094.4231,-198 1022.5769,-198 1022.5769,-162 1121.4231,-162 1121.4231,-198"/>
<text text-anchor="middle" x="1072" y="-175.8" font-family="Times,serif" font-size="14.00" fill="#000000">SharedModule</text>
</g>
<!-- SharedModule&#45;&gt;AppModule -->
<g id="edge6" class="edge">
<title>SharedModule&#45;&gt;AppModule</title>
<path fill="none" stroke="#000000" d="M1088.4037,-198.1289C1088.4037,-218.5724 1088.4037,-249 1088.4037,-249 1088.4037,-249 905.9067,-249 905.9067,-249"/>
<polygon fill="#000000" stroke="#000000" points="905.9067,-245.5001 895.9067,-249 905.9066,-252.5001 905.9067,-245.5001"/>
</g>
<!-- SharedModule&#45;&gt;AuthentificationModule -->
<g id="edge11" class="edge">
<title>SharedModule&#45;&gt;AuthentificationModule</title>
<path fill="none" stroke="#000000" d="M1039.1926,-198.1299C1039.1926,-208.3145 1039.1926,-219 1039.1926,-219 1039.1926,-219 317,-219 317,-219 317,-219 317,-219.7942 317,-219.7942"/>
<polygon fill="#000000" stroke="#000000" points="313.5001,-216.9421 317,-226.9421 320.5001,-216.9422 313.5001,-216.9421"/>
</g>
<!-- SharedModule&#45;&gt;DispositionModule -->
<g id="edge21" class="edge">
<title>SharedModule&#45;&gt;DispositionModule</title>
<path fill="none" stroke="#000000" d="M1104.8074,-198.2667C1104.8074,-216.5552 1104.8074,-242 1104.8074,-242 1104.8074,-242 1361.6944,-242 1361.6944,-242"/>
<polygon fill="#000000" stroke="#000000" points="1361.6944,-245.5001 1371.6944,-242 1361.6943,-238.5001 1361.6944,-245.5001"/>
</g>
<!-- SharedModule&#45;&gt;ReportingModule -->
<g id="edge25" class="edge">
<title>SharedModule&#45;&gt;ReportingModule</title>
<path fill="none" stroke="#000000" d="M1055.5963,-198.32C1055.5963,-206.7883 1055.5963,-215 1055.5963,-215 1055.5963,-215 1956.1143,-215 1956.1143,-215 1956.1143,-215 1956.1143,-216.8568 1956.1143,-216.8568"/>
<polygon fill="#000000" stroke="#000000" points="1952.6144,-216.8568 1956.1143,-226.8568 1959.6144,-216.8568 1952.6144,-216.8568"/>
</g>
<!-- SharedModule&#45;&gt;VisualisationModule -->
<g id="edge32" class="edge">
<title>SharedModule&#45;&gt;VisualisationModule</title>
<path fill="none" stroke="#000000" d="M1072,-198.1592C1072,-203.0433 1072,-207 1072,-207 1072,-207 2660.3753,-207 2660.3753,-207 2660.3753,-207 2660.3753,-216.8903 2660.3753,-216.8903"/>
<polygon fill="#000000" stroke="#000000" points="2656.8754,-216.8903 2660.3753,-226.8903 2663.8754,-216.8904 2656.8754,-216.8903"/>
</g>
<!-- UserProfileComponent -->
<g id="node9" class="node">
<title>UserProfileComponent</title>
<polygon fill="#ffffb3" stroke="#000000" points="389.8585,-198 244.1415,-198 244.1415,-162 389.8585,-162 389.8585,-198"/>
<text text-anchor="middle" x="317" y="-175.8" font-family="Times,serif" font-size="14.00" fill="#000000">UserProfileComponent</text>
</g>
<!-- UserProfileComponent&#45;&gt;AuthentificationModule -->
<g id="edge8" class="edge">
<title>UserProfileComponent&#45;&gt;AuthentificationModule</title>
<path fill="none" stroke="#000000" d="M280.5354,-198.1061C280.5354,-198.1061 280.5354,-216.991 280.5354,-216.991"/>
<polygon fill="#000000" stroke="#000000" points="277.0355,-216.9909 280.5354,-226.991 284.0355,-216.991 277.0355,-216.9909"/>
</g>
<!-- AuthentificationRoutingModule -->
<g id="node11" class="node">
<title>AuthentificationRoutingModule</title>
<polygon fill="#8dd3c7" stroke="#000000" points="220.4227,-198 217.4227,-202 196.4227,-202 193.4227,-198 23.5773,-198 23.5773,-162 220.4227,-162 220.4227,-198"/>
<text text-anchor="middle" x="122" y="-175.8" font-family="Times,serif" font-size="14.00" fill="#000000">AuthentificationRoutingModule</text>
</g>
<!-- AuthentificationRoutingModule&#45;&gt;AuthentificationModule -->
<g id="edge9" class="edge">
<title>AuthentificationRoutingModule&#45;&gt;AuthentificationModule</title>
<path fill="none" stroke="#000000" d="M122,-198.1061C122,-217.3391 122,-245 122,-245 122,-245 233.1164,-245 233.1164,-245"/>
<polygon fill="#000000" stroke="#000000" points="233.1165,-248.5001 243.1164,-245 233.1164,-241.5001 233.1165,-248.5001"/>
</g>
<!-- CustomInterceptor -->
<g id="node12" class="node">
<title>CustomInterceptor</title>
<ellipse fill="#fdb462" stroke="#000000" cx="1428" cy="-104" rx="83.3847" ry="18"/>
<text text-anchor="middle" x="1428" y="-99.8" font-family="Times,serif" font-size="14.00" fill="#000000">CustomInterceptor</text>
</g>
<!-- CustomInterceptor&#45;&gt;CoreModule -->
<g id="edge12" class="edge">
<title>CustomInterceptor&#45;&gt;CoreModule</title>
<path fill="none" stroke="#000000" d="M1390.0853,-120.375C1390.0853,-128.248 1390.0853,-136 1390.0853,-136 1390.0853,-136 1218.0813,-136 1218.0813,-136 1218.0813,-136 1218.0813,-151.8495 1218.0813,-151.8495"/>
<polygon fill="#000000" stroke="#000000" points="1214.5814,-151.8494 1218.0813,-161.8495 1221.5814,-151.8495 1214.5814,-151.8494"/>
</g>
<!-- MawiService -->
<g id="node13" class="node">
<title>MawiService</title>
<ellipse fill="#fdb462" stroke="#000000" cx="1264" cy="-104" rx="62.5354" ry="18"/>
<text text-anchor="middle" x="1264" y="-99.8" font-family="Times,serif" font-size="14.00" fill="#000000">MawiService</text>
</g>
<!-- MawiService&#45;&gt;CoreModule -->
<g id="edge13" class="edge">
<title>MawiService&#45;&gt;CoreModule</title>
<path fill="none" stroke="#000000" d="M1209.7818,-113.0166C1209.7818,-113.0166 1209.7818,-151.7357 1209.7818,-151.7357"/>
<polygon fill="#000000" stroke="#000000" points="1206.2819,-151.7356 1209.7818,-161.7357 1213.2819,-151.7357 1206.2819,-151.7356"/>
</g>
<!-- ProductionService -->
<g id="node14" class="node">
<title>ProductionService</title>
<ellipse fill="#fdb462" stroke="#000000" cx="1101" cy="-104" rx="82.243" ry="18"/>
<text text-anchor="middle" x="1101" y="-99.8" font-family="Times,serif" font-size="14.00" fill="#000000">ProductionService</text>
</g>
<!-- ProductionService&#45;&gt;CoreModule -->
<g id="edge14" class="edge">
<title>ProductionService&#45;&gt;CoreModule</title>
<path fill="none" stroke="#000000" d="M1168.7873,-114.2497C1168.7873,-114.2497 1168.7873,-151.7689 1168.7873,-151.7689"/>
<polygon fill="#000000" stroke="#000000" points="1165.2874,-151.7689 1168.7873,-161.7689 1172.2874,-151.769 1165.2874,-151.7689"/>
</g>
<!-- VeveService -->
<g id="node15" class="node">
<title>VeveService</title>
<ellipse fill="#fdb462" stroke="#000000" cx="940" cy="-104" rx="60.2306" ry="18"/>
<text text-anchor="middle" x="940" y="-99.8" font-family="Times,serif" font-size="14.00" fill="#000000">VeveService</text>
</g>
<!-- VeveService&#45;&gt;CoreModule -->
<g id="edge15" class="edge">
<title>VeveService&#45;&gt;CoreModule</title>
<path fill="none" stroke="#000000" d="M940,-122.0439C940,-134.5633 940,-149 940,-149 940,-149 1154.2033,-149 1154.2033,-149 1154.2033,-149 1154.2033,-151.9672 1154.2033,-151.9672"/>
<polygon fill="#000000" stroke="#000000" points="1150.7034,-151.9671 1154.2033,-161.9672 1157.7034,-151.9672 1150.7034,-151.9671"/>
</g>
<!-- DispositionComponent -->
<g id="node16" class="node">
<title>DispositionComponent</title>
<polygon fill="#ffffb3" stroke="#000000" points="1737.8906,-198 1592.1094,-198 1592.1094,-162 1737.8906,-162 1737.8906,-198"/>
<text text-anchor="middle" x="1665" y="-175.8" font-family="Times,serif" font-size="14.00" fill="#000000">DispositionComponent</text>
</g>
<!-- DispositionComponent&#45;&gt;DispositionModule -->
<g id="edge16" class="edge">
<title>DispositionComponent&#45;&gt;DispositionModule</title>
<path fill="none" stroke="#000000" d="M1665,-198.0225C1665,-215.3734 1665,-239 1665,-239 1665,-239 1506.2076,-239 1506.2076,-239"/>
<polygon fill="#000000" stroke="#000000" points="1506.2077,-235.5001 1496.2076,-239 1506.2076,-242.5001 1506.2077,-235.5001"/>
</g>
<!-- OrderComponent -->
<g id="node17" class="node">
<title>OrderComponent</title>
<polygon fill="#ffffb3" stroke="#000000" points="1573.9748,-198 1460.0252,-198 1460.0252,-162 1573.9748,-162 1573.9748,-198"/>
<text text-anchor="middle" x="1517" y="-175.8" font-family="Times,serif" font-size="14.00" fill="#000000">OrderComponent</text>
</g>
<!-- OrderComponent&#45;&gt;DispositionModule -->
<g id="edge17" class="edge">
<title>OrderComponent&#45;&gt;DispositionModule</title>
<path fill="none" stroke="#000000" d="M1478.0333,-198.1061C1478.0333,-198.1061 1478.0333,-216.991 1478.0333,-216.991"/>
<polygon fill="#000000" stroke="#000000" points="1474.5334,-216.9909 1478.0333,-226.991 1481.5334,-216.991 1474.5334,-216.9909"/>
</g>
<!-- StorageComponent -->
<g id="node18" class="node">
<title>StorageComponent</title>
<polygon fill="#ffffb3" stroke="#000000" points="1880.0954,-198 1755.9046,-198 1755.9046,-162 1880.0954,-162 1880.0954,-198"/>
<text text-anchor="middle" x="1818" y="-175.8" font-family="Times,serif" font-size="14.00" fill="#000000">StorageComponent</text>
</g>
<!-- StorageComponent&#45;&gt;DispositionModule -->
<g id="edge18" class="edge">
<title>StorageComponent&#45;&gt;DispositionModule</title>
<path fill="none" stroke="#000000" d="M1818,-198.2843C1818,-219.3211 1818,-251 1818,-251 1818,-251 1506.123,-251 1506.123,-251"/>
<polygon fill="#000000" stroke="#000000" points="1506.1231,-247.5001 1496.123,-251 1506.123,-254.5001 1506.1231,-247.5001"/>
</g>
<!-- DispositionRoutingModule -->
<g id="node20" class="node">
<title>DispositionRoutingModule</title>
<polygon fill="#8dd3c7" stroke="#000000" points="1435.726,-198 1432.726,-202 1411.726,-202 1408.726,-198 1266.274,-198 1266.274,-162 1435.726,-162 1435.726,-198"/>
<text text-anchor="middle" x="1351" y="-175.8" font-family="Times,serif" font-size="14.00" fill="#000000">DispositionRoutingModule</text>
</g>
<!-- DispositionRoutingModule&#45;&gt;DispositionModule -->
<g id="edge20" class="edge">
<title>DispositionRoutingModule&#45;&gt;DispositionModule</title>
<path fill="none" stroke="#000000" d="M1403.7795,-198.1061C1403.7795,-198.1061 1403.7795,-216.991 1403.7795,-216.991"/>
<polygon fill="#000000" stroke="#000000" points="1400.2795,-216.9909 1403.7795,-226.991 1407.2795,-216.991 1400.2795,-216.9909"/>
</g>
<!-- KeyFiguresComponent -->
<g id="node21" class="node">
<title>KeyFiguresComponent</title>
<polygon fill="#ffffb3" stroke="#000000" points="2250.147,-198 2103.853,-198 2103.853,-162 2250.147,-162 2250.147,-198"/>
<text text-anchor="middle" x="2177" y="-175.8" font-family="Times,serif" font-size="14.00" fill="#000000">KeyFiguresComponent</text>
</g>
<!-- KeyFiguresComponent&#45;&gt;ReportingModule -->
<g id="edge22" class="edge">
<title>KeyFiguresComponent&#45;&gt;ReportingModule</title>
<path fill="none" stroke="#000000" d="M2177,-198.2843C2177,-219.3211 2177,-251 2177,-251 2177,-251 2052.6063,-251 2052.6063,-251"/>
<polygon fill="#000000" stroke="#000000" points="2052.6064,-247.5001 2042.6063,-251 2052.6063,-254.5001 2052.6064,-247.5001"/>
</g>
<!-- ReportingRoutingModule -->
<g id="node23" class="node">
<title>ReportingRoutingModule</title>
<polygon fill="#8dd3c7" stroke="#000000" points="2080.161,-198 2077.161,-202 2056.161,-202 2053.161,-198 1919.839,-198 1919.839,-162 2080.161,-162 2080.161,-198"/>
<text text-anchor="middle" x="2000" y="-175.8" font-family="Times,serif" font-size="14.00" fill="#000000">ReportingRoutingModule</text>
</g>
<!-- ReportingRoutingModule&#45;&gt;ReportingModule -->
<g id="edge24" class="edge">
<title>ReportingRoutingModule&#45;&gt;ReportingModule</title>
<path fill="none" stroke="#000000" d="M2013.8857,-198.1061C2013.8857,-198.1061 2013.8857,-216.991 2013.8857,-216.991"/>
<polygon fill="#000000" stroke="#000000" points="2010.3858,-216.9909 2013.8857,-226.991 2017.3858,-216.991 2010.3858,-216.9909"/>
</g>
<!-- OrderPlanningComponent -->
<g id="node24" class="node">
<title>OrderPlanningComponent</title>
<polygon fill="#ffffb3" stroke="#000000" points="3619.7534,-198 3456.2466,-198 3456.2466,-162 3619.7534,-162 3619.7534,-198"/>
<text text-anchor="middle" x="3538" y="-175.8" font-family="Times,serif" font-size="14.00" fill="#000000">OrderPlanningComponent</text>
</g>
<!-- OrderPlanningComponent&#45;&gt;VisualisationModule -->
<g id="edge26" class="edge">
<title>OrderPlanningComponent&#45;&gt;VisualisationModule</title>
<path fill="none" stroke="#000000" d="M3538,-198.2921C3538,-220.2057 3538,-254 3538,-254 3538,-254 2790.7334,-254 2790.7334,-254"/>
<polygon fill="#000000" stroke="#000000" points="2790.7334,-250.5001 2780.7334,-254 2790.7334,-257.5001 2790.7334,-250.5001"/>
</g>
<!-- ProductionMonitoringComponent -->
<g id="node25" class="node">
<title>ProductionMonitoringComponent</title>
<polygon fill="#ffffb3" stroke="#000000" points="3438.0489,-198 3231.9511,-198 3231.9511,-162 3438.0489,-162 3438.0489,-198"/>
<text text-anchor="middle" x="3335" y="-175.8" font-family="Times,serif" font-size="14.00" fill="#000000">ProductionMonitoringComponent</text>
</g>
<!-- ProductionMonitoringComponent&#45;&gt;VisualisationModule -->
<g id="edge27" class="edge">
<title>ProductionMonitoringComponent&#45;&gt;VisualisationModule</title>
<path fill="none" stroke="#000000" d="M3335,-198.1061C3335,-217.3391 3335,-245 3335,-245 3335,-245 2790.7526,-245 2790.7526,-245"/>
<polygon fill="#000000" stroke="#000000" points="2790.7527,-241.5001 2780.7526,-245 2790.7526,-248.5001 2790.7527,-241.5001"/>
</g>
<!-- ProductionOrderDetailDialogComponent -->
<g id="node26" class="node">
<title>ProductionOrderDetailDialogComponent</title>
<polygon fill="#ffffb3" stroke="#000000" points="3213.724,-198 2966.276,-198 2966.276,-162 3213.724,-162 3213.724,-198"/>
<text text-anchor="middle" x="3090" y="-175.8" font-family="Times,serif" font-size="14.00" fill="#000000">ProductionOrderDetailDialogComponent</text>
</g>
<!-- ProductionOrderDetailDialogComponent&#45;&gt;VisualisationModule -->
<g id="edge28" class="edge">
<title>ProductionOrderDetailDialogComponent&#45;&gt;VisualisationModule</title>
<path fill="none" stroke="#000000" d="M3090,-198.027C3090,-214.3976 3090,-236 3090,-236 3090,-236 2790.788,-236 2790.788,-236"/>
<polygon fill="#000000" stroke="#000000" points="2790.788,-232.5001 2780.788,-236 2790.788,-239.5001 2790.788,-232.5001"/>
</g>
<!-- ProductionOrderOverviewComponent -->
<g id="node27" class="node">
<title>ProductionOrderOverviewComponent</title>
<polygon fill="#ffffb3" stroke="#000000" points="2948.1077,-198 2717.8923,-198 2717.8923,-162 2948.1077,-162 2948.1077,-198"/>
<text text-anchor="middle" x="2833" y="-175.8" font-family="Times,serif" font-size="14.00" fill="#000000">ProductionOrderOverviewComponent</text>
</g>
<!-- ProductionOrderOverviewComponent&#45;&gt;VisualisationModule -->
<g id="edge29" class="edge">
<title>ProductionOrderOverviewComponent&#45;&gt;VisualisationModule</title>
<path fill="none" stroke="#000000" d="M2749.2051,-198.1061C2749.2051,-198.1061 2749.2051,-216.991 2749.2051,-216.991"/>
<polygon fill="#000000" stroke="#000000" points="2745.7052,-216.9909 2749.2051,-226.991 2752.7052,-216.991 2745.7052,-216.9909"/>
</g>
<!-- ProductionOrderTableComponent -->
<g id="node28" class="node">
<title>ProductionOrderTableComponent</title>
<polygon fill="#ffffb3" stroke="#000000" points="2699.7864,-198 2492.2136,-198 2492.2136,-162 2699.7864,-162 2699.7864,-198"/>
<text text-anchor="middle" x="2596" y="-175.8" font-family="Times,serif" font-size="14.00" fill="#000000">ProductionOrderTableComponent</text>
</g>
<!-- ProductionOrderTableComponent&#45;&gt;VisualisationModule -->
<g id="edge30" class="edge">
<title>ProductionOrderTableComponent&#45;&gt;VisualisationModule</title>
<path fill="none" stroke="#000000" d="M2686.5539,-198.1061C2686.5539,-198.1061 2686.5539,-216.991 2686.5539,-216.991"/>
<polygon fill="#000000" stroke="#000000" points="2683.0539,-216.9909 2686.5539,-226.991 2690.0539,-216.991 2683.0539,-216.9909"/>
</g>
<!-- VisualisationRoutingModule -->
<g id="node30" class="node">
<title>VisualisationRoutingModule</title>
<polygon fill="#8dd3c7" stroke="#000000" points="2468.0462,-198 2465.0462,-202 2444.0462,-202 2441.0462,-198 2289.9538,-198 2289.9538,-162 2468.0462,-162 2468.0462,-198"/>
<text text-anchor="middle" x="2379" y="-175.8" font-family="Times,serif" font-size="14.00" fill="#000000">VisualisationRoutingModule</text>
</g>
<!-- VisualisationRoutingModule&#45;&gt;VisualisationModule -->
<g id="edge33" class="edge">
<title>VisualisationRoutingModule&#45;&gt;VisualisationModule</title>
<path fill="none" stroke="#000000" d="M2379,-198.0225C2379,-215.3734 2379,-239 2379,-239 2379,-239 2637.0129,-239 2637.0129,-239"/>
<polygon fill="#000000" stroke="#000000" points="2637.0129,-242.5001 2647.0129,-239 2637.0129,-235.5001 2637.0129,-242.5001"/>
</g>
</g>
</svg>
